<?xml version="1.0" encoding="UTF-8" standalone="no"?>
<!DOCTYPE svg PUBLIC "-//W3C//DTD SVG 1.1//EN" "http://www.w3.org/Graphics/SVG/1.1/DTD/svg11.dtd">
<svg version="1.1" 
    xmlns="http://www.w3.org/2000/svg" 
    xmlns:xlink="http://www.w3.org/1999/xlink" preserveAspectRatio="xMidYMid meet" viewBox="0 0 448 448" width="512" height="512">
    <defs>
        <path d="M320 0L320 64L64 64L0 0L320 0Z" id="bjUV3sKBm"></path>
        <path d="M320 128L320 192L64 192L0 128L320 128Z" id="g6zb3TXQ9Q"></path>
        <path d="M320 256L320 320L64 320L0 256L320 256Z" id="j144zywPgE"></path>
        <path d="M0 384L0 448L384 448L448 384L0 384Z" id="c6vUhxucGx"></path>
        <path d="M384 384L448 384L448 256L384 192L384 384Z" id="b1eEBitlLK"></path>
        <path d="M0 128L64 128L64 64L0 0L0 128Z" id="dc0EPGdYS"></path>
        <path d="M0 256L64 256L64 192L0 128L0 256Z" id="b2gKFIRx9m"></path>
    </defs>
    <g>
        <g>
            <use xlink:href="#bjUV3sKBm" opacity="1" fill="#fcccba" fill-opacity="1"></use>
        </g>
        <g>
            <use xlink:href="#g6zb3TXQ9Q" opacity="1" fill="#eea384" fill-opacity="1"></use>
        </g>
        <g>
            <use xlink:href="#j144zywPgE" opacity="1" fill="#626eb6" fill-opacity="1"></use>
        </g>
        <g>
            <use xlink:href="#c6vUhxucGx" opacity="1" fill="#5dbecb" fill-opacity="1"></use>
        </g>
        <g>
            <use xlink:href="#b1eEBitlLK" opacity="1" fill="#1d6d7d" fill-opacity="1"></use>
        </g>
        <g>
            <use xlink:href="#dc0EPGdYS" opacity="1" fill="#2d335a" fill-opacity="1"></use>
        </g>
        <g>
            <use xlink:href="#b2gKFIRx9m" opacity="1" fill="#2d335a" fill-opacity="1"></use>
        </g>
    </g>
</svg>